<svg width="607.2224609374999px" height="121.44775390625px" xmlns="http://www.w3.org/2000/svg" viewBox="-53.611230468749966 14.276123046875 607.2224609374999 121.44775390625" style="background:rgb(29,181,147)" preserveAspectRatio="xMidYMid"><defs><linearGradient id="editing-shadow-gradient1" x1="0" x2="0" y1="0" y2="1"><stop offset="0" stop-color="#000000" stop-opacity="0"></stop><stop offset="0.2" stop-color="#000000" stop-opacity="0"></stop><stop offset="1" stop-color="#000000" stop-opacity="1"></stop></linearGradient><linearGradient id="editing-shadow-gradient2" x1="-0.254709580222772" x2="1.2547095802227721" y1="-0.15605902899050716" y2="1.1560590289905073"><stop offset="0" stop-color="#ffffff"></stop><stop offset="1" stop-color="#fec918"></stop></linearGradient><filter id="editing-shadow" x="-100%" y="-100%" width="300%" height="300%"><feGaussianBlur stdDeviation="2"></feGaussianBlur><feComposite operator="in" in2="SourceGraphic"></feComposite><feGaussianBlur stdDeviation="1"></feGaussianBlur></filter></defs><g transform="translate(250,75)"><g transform="translate(-20.4, -1.2)"><g transform="skewX(45)"><g filter="url(#editing-shadow)"><g transform="translate(-176.89499208331108, 27.744998931884766)"><path d="M26.11-42.69L26.11-42.69L26.11-42.69Q41.79-42.69 41.79-31.62L41.79-31.62L41.79-31.62Q41.79-25.54 37.89-21.89L37.89-21.89L37.89-21.89Q34.05-18.24 27.33-18.24L27.33-18.24L27.33-18.24Q24.19-18.24 21.76-20.03L21.76-20.03L21.76-20.03Q20.61-20.80 19.84-21.82L19.84-21.82L19.84-21.82Q24.51-21.82 26.98-24.67L26.98-24.67L26.98-24.67Q29.44-27.52 29.44-33.09L29.44-33.09L29.44-33.09Q29.44-38.66 23.94-38.66L23.94-38.66L22.40-38.66L22.40-38.66Q22.02-38.66 21.70-38.59L21.70-38.59L14.34 0L0.45 0L8.32-41.92L8.32-41.92Q15.17-42.56 19.14-42.62L19.14-42.62L19.14-42.62Q23.10-42.69 26.11-42.69ZM44.90-1.92L44.90-1.92L44.90-1.92Q43.39-3.58 42.72-6.21L42.72-6.21L42.72-6.21Q42.05-8.83 42.05-13.12L42.05-13.12L42.05-13.12Q42.05-17.41 43.52-21.31L43.52-21.31L43.52-21.31Q44.99-25.22 47.68-28.03L47.68-28.03L47.68-28.03Q53.18-33.92 62.27-33.92L62.27-33.92L62.27-33.92Q65.54-33.92 67.90-32.83L67.90-32.83L78.85-33.92L74.11-8.96L74.11-8.96Q73.92-8.19 73.92-6.78L73.92-6.78L73.92-6.78Q73.92-5.38 74.78-4.48L74.78-4.48L74.78-4.48Q75.65-3.58 76.93-3.46L76.93-3.46L76.93-3.46Q76.29-1.28 73.95 0L73.95 0L73.95 0Q71.62 1.28 68.99 1.28L68.99 1.28L68.99 1.28Q66.37 1.28 64.61 0.29L64.61 0.29L64.61 0.29Q62.85-0.70 62.34-2.37L62.34-2.37L62.34-2.37Q61.31-0.77 59.14 0.26L59.14 0.26L59.14 0.26Q56.96 1.28 54.05 1.28L54.05 1.28L54.05 1.28Q51.14 1.28 48.77 0.51L48.77 0.51L48.77 0.51Q46.40-0.26 44.90-1.92ZM58.40-27.90L58.40-27.90L58.40-27.90Q57.66-26.75 57.02-24.80L57.02-24.80L57.02-24.80Q56.38-22.85 55.33-17.63L55.33-17.63L55.33-17.63Q54.27-12.42 54.27-8.70L54.27-8.70L54.27-8.70Q54.27-4.99 54.85-3.90L54.85-3.90L54.85-3.90Q55.42-2.82 56.45-2.82L56.45-2.82L56.45-2.82Q58.50-2.82 60-4.77L60-4.77L60-4.77Q61.50-6.72 62.08-10.18L62.08-10.18L65.47-28.93L65.47-28.93Q64.13-30.08 62.56-30.08L62.56-30.08L62.56-30.08Q60.99-30.08 60.06-29.57L60.06-29.57L60.06-29.57Q59.14-29.06 58.40-27.90ZM112.13-4.38L112.13-4.38L112.13-4.38Q109.44-1.66 105.76-0.19L105.76-0.19L105.76-0.19Q102.08 1.28 98.43 1.28L98.43 1.28L98.43 1.28Q94.78 1.28 93.50 0.64L93.50 0.64L91.52 11.52L78.53 12.80L87.36-32.64L97.79-33.73L96.96-29.31L96.96-29.31Q99.65-33.86 105.22-33.86L105.22-33.86L105.22-33.86Q111.49-33.86 114.82-29.82L114.82-29.82L114.82-29.82Q117.76-26.18 117.76-20.61L117.76-20.61L117.76-20.61Q117.76-15.04 116.29-11.07L116.29-11.07L116.29-11.07Q114.82-7.10 112.13-4.38ZM97.66-22.34L94.27-3.58L94.27-3.58Q95.62-2.43 97.28-2.43L97.28-2.43L97.28-2.43Q98.94-2.43 99.90-3.07L99.90-3.07L99.90-3.07Q100.86-3.71 101.57-4.99L101.57-4.99L101.57-4.99Q103.49-8.45 105.02-18.94L105.02-18.94L105.02-18.94Q105.47-22.02 105.47-25.02L105.47-25.02L105.47-25.02Q105.47-28.03 104.80-28.99L104.80-28.99L104.80-28.99Q104.13-29.95 102.85-29.95L102.85-29.95L102.85-29.95Q98.94-29.95 97.66-22.34L97.66-22.34ZM124.38-1.92L124.38-1.92L124.38-1.92Q122.88-3.58 122.21-6.21L122.21-6.21L122.21-6.21Q121.54-8.83 121.54-13.12L121.54-13.12L121.54-13.12Q121.54-17.41 123.01-21.31L123.01-21.31L123.01-21.31Q124.48-25.22 127.17-28.03L127.17-28.03L127.17-28.03Q132.67-33.92 141.76-33.92L141.76-33.92L141.76-33.92Q145.02-33.92 147.39-32.83L147.39-32.83L158.34-33.92L153.60-8.96L153.60-8.96Q153.41-8.19 153.41-6.78L153.41-6.78L153.41-6.78Q153.41-5.38 154.27-4.48L154.27-4.48L154.27-4.48Q155.14-3.58 156.42-3.46L156.42-3.46L156.42-3.46Q155.78-1.28 153.44 0L153.44 0L153.44 0Q151.10 1.28 148.48 1.28L148.48 1.28L148.48 1.28Q145.86 1.28 144.10 0.29L144.10 0.29L144.10 0.29Q142.34-0.70 141.82-2.37L141.82-2.37L141.82-2.37Q140.80-0.77 138.62 0.26L138.62 0.26L138.62 0.26Q136.45 1.28 133.54 1.28L133.54 1.28L133.54 1.28Q130.62 1.28 128.26 0.51L128.26 0.51L128.26 0.51Q125.89-0.26 124.38-1.92ZM137.89-27.90L137.89-27.90L137.89-27.90Q137.15-26.75 136.51-24.80L136.51-24.80L136.51-24.80Q135.87-22.85 134.82-17.63L134.82-17.63L134.82-17.63Q133.76-12.42 133.76-8.70L133.76-8.70L133.76-8.70Q133.76-4.99 134.34-3.90L134.34-3.90L134.34-3.90Q134.91-2.82 135.94-2.82L135.94-2.82L135.94-2.82Q137.98-2.82 139.49-4.77L139.49-4.77L139.49-4.77Q140.99-6.72 141.57-10.18L141.57-10.18L144.96-28.93L144.96-28.93Q143.62-30.08 142.05-30.08L142.05-30.08L142.05-30.08Q140.48-30.08 139.55-29.57L139.55-29.57L139.55-29.57Q138.62-29.06 137.89-27.90ZM175.49 1.28L175.49 1.28L175.49 1.28Q161.41 1.28 161.41-11.97L161.41-11.97L161.41-11.97Q161.41-21.38 166.59-27.46L166.59-27.46L166.59-27.46Q172.10-33.92 181.63-33.92L181.63-33.92L181.63-33.92Q188.54-33.92 192.06-30.72L192.06-30.72L192.06-30.72Q195.58-27.52 195.58-20.80L195.58-20.80L195.58-20.80Q195.58-10.56 190.08-4.61L190.08-4.61L190.08-4.61Q184.70 1.28 175.49 1.28ZM177.15-26.56L177.15-26.56L177.15-26.56Q176.38-24.83 175.78-22.24L175.78-22.24L175.78-22.24Q175.17-19.65 174.40-15.55L174.40-15.55L174.40-15.55Q173.63-11.46 173.63-6.40L173.63-6.40L173.63-6.40Q173.63-4.74 174.18-3.65L174.18-3.65L174.18-3.65Q174.72-2.56 176.19-2.56L176.19-2.56L176.19-2.56Q177.66-2.56 178.59-3.26L178.59-3.26L178.59-3.26Q179.52-3.97 180.22-5.63L180.22-5.63L180.22-5.63Q181.50-8.58 182.53-14.05L182.53-14.05L182.53-14.05Q183.55-19.52 183.65-21.89L183.65-21.89L183.65-21.89Q183.74-24.26 183.74-26.02L183.74-26.02L183.74-26.02Q183.74-27.78 183.23-28.93L183.23-28.93L183.23-28.93Q182.72-30.08 181.28-30.08L181.28-30.08L181.28-30.08Q179.84-30.08 178.88-29.18L178.88-29.18L178.88-29.18Q177.92-28.29 177.15-26.56ZM229.18-4.38L229.18-4.38L229.18-4.38Q226.50-1.66 222.82-0.19L222.82-0.19L222.82-0.19Q219.14 1.28 215.49 1.28L215.49 1.28L215.49 1.28Q211.84 1.28 210.56 0.64L210.56 0.64L208.58 11.52L195.58 12.80L204.42-32.64L214.85-33.73L214.02-29.31L214.02-29.31Q216.70-33.86 222.27-33.86L222.27-33.86L222.27-33.86Q228.54-33.86 231.87-29.82L231.87-29.82L231.87-29.82Q234.82-26.18 234.82-20.61L234.82-20.61L234.82-20.61Q234.82-15.04 233.34-11.07L233.34-11.07L233.34-11.07Q231.87-7.10 229.18-4.38ZM214.72-22.34L211.33-3.58L211.33-3.58Q212.67-2.43 214.34-2.43L214.34-2.43L214.34-2.43Q216-2.43 216.96-3.07L216.96-3.07L216.96-3.07Q217.92-3.71 218.62-4.99L218.62-4.99L218.62-4.99Q220.54-8.45 222.08-18.94L222.08-18.94L222.08-18.94Q222.53-22.02 222.53-25.02L222.53-25.02L222.53-25.02Q222.53-28.03 221.86-28.99L221.86-28.99L221.86-28.99Q221.18-29.95 219.90-29.95L219.90-29.95L219.90-29.95Q216-29.95 214.72-22.34L214.72-22.34ZM239.68-6.40L239.68-6.40L239.68-6.40Q239.68-8.13 240.58-12.48L240.58-12.48L243.97-29.76L240.19-29.76L240.45-31.68L240.45-31.68Q248.13-33.98 255.55-39.62L255.55-39.62L258.62-39.62L257.09-32.64L262.08-32.64L261.50-29.76L256.58-29.76L253.31-12.48L253.31-12.48Q252.48-8.51 252.48-7.17L252.48-7.17L252.48-7.17Q252.48-4.10 255.17-3.46L255.17-3.46L255.17-3.46Q254.53-1.28 252.22 0L252.22 0L252.22 0Q249.92 1.28 246.66 1.28L246.66 1.28L246.66 1.28Q243.39 1.28 241.54-0.77L241.54-0.77L241.54-0.77Q239.68-2.82 239.68-6.40ZM275.46 1.28L275.46 1.28L275.46 1.28Q261.38 1.28 261.38-11.97L261.38-11.97L261.38-11.97Q261.38-21.38 266.56-27.46L266.56-27.46L266.56-27.46Q272.06-33.92 281.60-33.92L281.60-33.92L281.60-33.92Q288.51-33.92 292.03-30.72L292.03-30.72L292.03-30.72Q295.55-27.52 295.55-20.80L295.55-20.80L295.55-20.80Q295.55-10.56 290.05-4.61L290.05-4.61L290.05-4.61Q284.67 1.28 275.46 1.28ZM277.12-26.56L277.12-26.56L277.12-26.56Q276.35-24.83 275.74-22.24L275.74-22.24L275.74-22.24Q275.14-19.65 274.37-15.55L274.37-15.55L274.37-15.55Q273.60-11.46 273.60-6.40L273.60-6.40L273.60-6.40Q273.60-4.74 274.14-3.65L274.14-3.65L274.14-3.65Q274.69-2.56 276.16-2.56L276.16-2.56L276.16-2.56Q277.63-2.56 278.56-3.26L278.56-3.26L278.56-3.26Q279.49-3.97 280.19-5.63L280.19-5.63L280.19-5.63Q281.47-8.58 282.50-14.05L282.50-14.05L282.50-14.05Q283.52-19.52 283.62-21.89L283.62-21.89L283.62-21.89Q283.71-24.26 283.71-26.02L283.71-26.02L283.71-26.02Q283.71-27.78 283.20-28.93L283.20-28.93L283.20-28.93Q282.69-30.08 281.25-30.08L281.25-30.08L281.25-30.08Q279.81-30.08 278.85-29.18L278.85-29.18L278.85-29.18Q277.89-28.29 277.12-26.56ZM345.41 1.28L345.41 1.28L345.41 1.28Q337.66 1.28 337.66-4.74L337.66-4.74L337.66-4.74Q337.66-7.36 338.78-12.45L338.78-12.45L338.78-12.45Q339.90-17.54 340.29-19.58L340.29-19.58L340.29-19.58Q341.18-24.26 341.18-25.73L341.18-25.73L341.18-25.73Q341.18-28.99 338.75-28.99L338.75-28.99L338.75-28.99Q337.15-28.99 335.62-26.78L335.62-26.78L335.62-26.78Q334.08-24.58 333.38-20.16L333.38-20.16L329.41 0L316.93 1.28L320.38-16.13L320.38-16.13Q320.96-19.01 321.47-22.27L321.47-22.27L321.47-22.27Q321.98-25.54 321.98-26.05L321.98-26.05L321.98-26.05Q321.98-28.99 319.81-28.99L319.81-28.99L319.81-28.99Q318.34-28.99 316.74-26.82L316.74-26.82L316.74-26.82Q315.14-24.64 314.24-20.16L314.24-20.16L310.34 0L297.73 1.28L304.45-32.64L314.88-33.92L313.79-27.46L313.79-27.46Q315.46-30.91 318.53-32.42L318.53-32.42L318.53-32.42Q321.60-33.92 326.40-33.92L326.40-33.92L326.40-33.92Q329.15-33.92 330.94-32.58L330.94-32.58L330.94-32.58Q332.74-31.23 333.31-29.06L333.31-29.06L333.31-29.06Q334.40-31.30 337.18-32.61L337.18-32.61L337.18-32.61Q339.97-33.92 343.39-33.92L343.39-33.92L343.39-33.92Q346.82-33.92 348.51-33.18L348.51-33.18L348.51-33.18Q350.21-32.45 351.23-31.23L351.23-31.23L351.23-31.23Q352.96-28.99 352.96-24.90L352.96-24.90L352.96-24.90Q352.96-20.86 351.23-12.48L351.23-12.48L351.23-12.48Q350.34-8.38 350.34-6.88L350.34-6.88L350.34-6.88Q350.34-5.38 351.20-4.48L351.20-4.48L351.20-4.48Q352.06-3.58 353.34-3.46L353.34-3.46L353.34-3.46Q352.70-1.28 350.50 0L350.50 0L350.50 0Q348.29 1.28 345.41 1.28Z" fill="url(#editing-shadow-gradient1)"></path></g></g></g></g><g><g transform="translate(-176.89499208331108, 27.744998931884766)"><path d="M26.11-42.69L26.11-42.69L26.11-42.69Q41.79-42.69 41.79-31.62L41.79-31.62L41.79-31.62Q41.79-25.54 37.89-21.89L37.89-21.89L37.89-21.89Q34.05-18.24 27.33-18.24L27.33-18.24L27.33-18.24Q24.19-18.24 21.76-20.03L21.76-20.03L21.76-20.03Q20.61-20.80 19.84-21.82L19.84-21.82L19.84-21.82Q24.51-21.82 26.98-24.67L26.98-24.67L26.98-24.67Q29.44-27.52 29.44-33.09L29.44-33.09L29.44-33.09Q29.44-38.66 23.94-38.66L23.94-38.66L22.40-38.66L22.40-38.66Q22.02-38.66 21.70-38.59L21.70-38.59L14.34 0L0.45 0L8.32-41.92L8.32-41.92Q15.17-42.56 19.14-42.62L19.14-42.62L19.14-42.62Q23.10-42.69 26.11-42.69ZM44.90-1.92L44.90-1.92L44.90-1.92Q43.39-3.58 42.72-6.21L42.72-6.21L42.72-6.21Q42.05-8.83 42.05-13.12L42.05-13.12L42.05-13.12Q42.05-17.41 43.52-21.31L43.52-21.31L43.52-21.31Q44.99-25.22 47.68-28.03L47.68-28.03L47.68-28.03Q53.18-33.92 62.27-33.92L62.27-33.92L62.27-33.92Q65.54-33.92 67.90-32.83L67.90-32.83L78.85-33.92L74.11-8.96L74.11-8.96Q73.92-8.19 73.92-6.78L73.92-6.78L73.92-6.78Q73.92-5.38 74.78-4.48L74.78-4.48L74.78-4.48Q75.65-3.58 76.93-3.46L76.93-3.46L76.93-3.46Q76.29-1.28 73.95 0L73.95 0L73.95 0Q71.62 1.28 68.99 1.28L68.99 1.28L68.99 1.28Q66.37 1.28 64.61 0.29L64.61 0.29L64.61 0.29Q62.85-0.70 62.34-2.37L62.34-2.37L62.34-2.37Q61.31-0.77 59.14 0.26L59.14 0.26L59.14 0.26Q56.96 1.28 54.05 1.28L54.05 1.28L54.05 1.28Q51.14 1.28 48.77 0.51L48.77 0.51L48.77 0.51Q46.40-0.26 44.90-1.92ZM58.40-27.90L58.40-27.90L58.40-27.90Q57.66-26.75 57.02-24.80L57.02-24.80L57.02-24.80Q56.38-22.85 55.33-17.63L55.33-17.63L55.33-17.63Q54.27-12.42 54.27-8.70L54.27-8.70L54.27-8.70Q54.27-4.99 54.85-3.90L54.85-3.90L54.85-3.90Q55.42-2.82 56.45-2.82L56.45-2.82L56.45-2.82Q58.50-2.82 60-4.77L60-4.77L60-4.77Q61.50-6.72 62.08-10.18L62.08-10.18L65.47-28.93L65.47-28.93Q64.13-30.08 62.56-30.08L62.56-30.08L62.56-30.08Q60.99-30.08 60.06-29.57L60.06-29.57L60.06-29.57Q59.14-29.06 58.40-27.90ZM112.13-4.38L112.13-4.38L112.13-4.38Q109.44-1.66 105.76-0.19L105.76-0.19L105.76-0.19Q102.08 1.28 98.43 1.28L98.43 1.28L98.43 1.28Q94.78 1.28 93.50 0.64L93.50 0.64L91.52 11.52L78.53 12.80L87.36-32.64L97.79-33.73L96.96-29.31L96.96-29.31Q99.65-33.86 105.22-33.86L105.22-33.86L105.22-33.86Q111.49-33.86 114.82-29.82L114.82-29.82L114.82-29.82Q117.76-26.18 117.76-20.61L117.76-20.61L117.76-20.61Q117.76-15.04 116.29-11.07L116.29-11.07L116.29-11.07Q114.82-7.10 112.13-4.38ZM97.66-22.34L94.27-3.58L94.27-3.58Q95.62-2.43 97.28-2.43L97.28-2.43L97.28-2.43Q98.94-2.43 99.90-3.07L99.90-3.07L99.90-3.07Q100.86-3.71 101.57-4.99L101.57-4.99L101.57-4.99Q103.49-8.45 105.02-18.94L105.02-18.94L105.02-18.94Q105.47-22.02 105.47-25.02L105.47-25.02L105.47-25.02Q105.47-28.03 104.80-28.99L104.80-28.99L104.80-28.99Q104.13-29.95 102.85-29.95L102.85-29.95L102.85-29.95Q98.94-29.95 97.66-22.34L97.66-22.34ZM124.38-1.92L124.38-1.92L124.38-1.92Q122.88-3.58 122.21-6.21L122.21-6.21L122.21-6.21Q121.54-8.83 121.54-13.12L121.54-13.12L121.54-13.12Q121.54-17.41 123.01-21.31L123.01-21.31L123.01-21.31Q124.48-25.22 127.17-28.03L127.17-28.03L127.17-28.03Q132.67-33.92 141.76-33.92L141.76-33.92L141.76-33.92Q145.02-33.92 147.39-32.83L147.39-32.83L158.34-33.92L153.60-8.96L153.60-8.96Q153.41-8.19 153.41-6.78L153.41-6.78L153.41-6.78Q153.41-5.38 154.27-4.48L154.27-4.48L154.27-4.48Q155.14-3.58 156.42-3.46L156.42-3.46L156.42-3.46Q155.78-1.28 153.44 0L153.44 0L153.44 0Q151.10 1.28 148.48 1.28L148.48 1.28L148.48 1.28Q145.86 1.28 144.10 0.29L144.10 0.29L144.10 0.29Q142.34-0.70 141.82-2.37L141.82-2.37L141.82-2.37Q140.80-0.77 138.62 0.26L138.62 0.26L138.62 0.26Q136.45 1.28 133.54 1.28L133.54 1.28L133.54 1.28Q130.62 1.28 128.26 0.51L128.26 0.51L128.26 0.51Q125.89-0.26 124.38-1.92ZM137.89-27.90L137.89-27.90L137.89-27.90Q137.15-26.75 136.51-24.80L136.51-24.80L136.51-24.80Q135.87-22.85 134.82-17.63L134.82-17.63L134.82-17.63Q133.76-12.42 133.76-8.70L133.76-8.70L133.76-8.70Q133.76-4.99 134.34-3.90L134.34-3.90L134.34-3.90Q134.91-2.82 135.94-2.82L135.94-2.82L135.94-2.82Q137.98-2.82 139.49-4.77L139.49-4.77L139.49-4.77Q140.99-6.72 141.57-10.18L141.57-10.18L144.96-28.93L144.96-28.93Q143.62-30.08 142.05-30.08L142.05-30.08L142.05-30.08Q140.48-30.08 139.55-29.57L139.55-29.57L139.55-29.57Q138.62-29.06 137.89-27.90ZM175.49 1.28L175.49 1.28L175.49 1.28Q161.41 1.28 161.41-11.97L161.41-11.97L161.41-11.97Q161.41-21.38 166.59-27.46L166.59-27.46L166.59-27.46Q172.10-33.92 181.63-33.92L181.63-33.92L181.63-33.92Q188.54-33.92 192.06-30.72L192.06-30.72L192.06-30.72Q195.58-27.52 195.58-20.80L195.58-20.80L195.58-20.80Q195.58-10.56 190.08-4.61L190.08-4.61L190.08-4.61Q184.70 1.28 175.49 1.28ZM177.15-26.56L177.15-26.56L177.15-26.56Q176.38-24.83 175.78-22.24L175.78-22.24L175.78-22.24Q175.17-19.65 174.40-15.55L174.40-15.55L174.40-15.55Q173.63-11.46 173.63-6.40L173.63-6.40L173.63-6.40Q173.63-4.74 174.18-3.65L174.18-3.65L174.18-3.65Q174.72-2.56 176.19-2.56L176.19-2.56L176.19-2.56Q177.66-2.56 178.59-3.26L178.59-3.26L178.59-3.26Q179.52-3.97 180.22-5.63L180.22-5.63L180.22-5.63Q181.50-8.58 182.53-14.05L182.53-14.05L182.53-14.05Q183.55-19.52 183.65-21.89L183.65-21.89L183.65-21.89Q183.74-24.26 183.74-26.02L183.74-26.02L183.74-26.02Q183.74-27.78 183.23-28.93L183.23-28.93L183.23-28.93Q182.72-30.08 181.28-30.08L181.28-30.08L181.28-30.08Q179.84-30.08 178.88-29.18L178.88-29.18L178.88-29.18Q177.92-28.29 177.15-26.56ZM229.18-4.38L229.18-4.38L229.18-4.38Q226.50-1.66 222.82-0.19L222.82-0.19L222.82-0.19Q219.14 1.28 215.49 1.28L215.49 1.28L215.49 1.28Q211.84 1.28 210.56 0.64L210.56 0.64L208.58 11.52L195.58 12.80L204.42-32.64L214.85-33.73L214.02-29.31L214.02-29.31Q216.70-33.86 222.27-33.86L222.27-33.86L222.27-33.86Q228.54-33.86 231.87-29.82L231.87-29.82L231.87-29.82Q234.82-26.18 234.82-20.61L234.82-20.61L234.82-20.61Q234.82-15.04 233.34-11.07L233.34-11.07L233.34-11.07Q231.87-7.10 229.18-4.38ZM214.72-22.34L211.33-3.58L211.33-3.58Q212.67-2.43 214.34-2.43L214.34-2.43L214.34-2.43Q216-2.43 216.96-3.07L216.96-3.07L216.96-3.07Q217.92-3.71 218.62-4.99L218.62-4.99L218.62-4.99Q220.54-8.45 222.08-18.94L222.08-18.94L222.08-18.94Q222.53-22.02 222.53-25.02L222.53-25.02L222.53-25.02Q222.53-28.03 221.86-28.99L221.86-28.99L221.86-28.99Q221.18-29.95 219.90-29.95L219.90-29.95L219.90-29.95Q216-29.95 214.72-22.34L214.72-22.34ZM239.68-6.40L239.68-6.40L239.68-6.40Q239.68-8.13 240.58-12.48L240.58-12.48L243.97-29.76L240.19-29.76L240.45-31.68L240.45-31.68Q248.13-33.98 255.55-39.62L255.55-39.62L258.62-39.62L257.09-32.64L262.08-32.64L261.50-29.76L256.58-29.76L253.31-12.48L253.31-12.48Q252.48-8.51 252.48-7.17L252.48-7.17L252.48-7.17Q252.48-4.10 255.17-3.46L255.17-3.46L255.17-3.46Q254.53-1.28 252.22 0L252.22 0L252.22 0Q249.92 1.28 246.66 1.28L246.66 1.28L246.66 1.28Q243.39 1.28 241.54-0.77L241.54-0.77L241.54-0.77Q239.68-2.82 239.68-6.40ZM275.46 1.28L275.46 1.28L275.46 1.28Q261.38 1.28 261.38-11.97L261.38-11.97L261.38-11.97Q261.38-21.38 266.56-27.46L266.56-27.46L266.56-27.46Q272.06-33.92 281.60-33.92L281.60-33.92L281.60-33.92Q288.51-33.92 292.03-30.72L292.03-30.72L292.03-30.72Q295.55-27.52 295.55-20.80L295.55-20.80L295.55-20.80Q295.55-10.56 290.05-4.61L290.05-4.61L290.05-4.61Q284.67 1.28 275.46 1.28ZM277.12-26.56L277.12-26.56L277.12-26.56Q276.35-24.83 275.74-22.24L275.74-22.24L275.74-22.24Q275.14-19.65 274.37-15.55L274.37-15.55L274.37-15.55Q273.60-11.46 273.60-6.40L273.60-6.40L273.60-6.40Q273.60-4.74 274.14-3.65L274.14-3.65L274.14-3.65Q274.69-2.56 276.16-2.56L276.16-2.56L276.16-2.56Q277.63-2.56 278.56-3.26L278.56-3.26L278.56-3.26Q279.49-3.97 280.19-5.63L280.19-5.63L280.19-5.63Q281.47-8.58 282.50-14.05L282.50-14.05L282.50-14.05Q283.52-19.52 283.62-21.89L283.62-21.89L283.62-21.89Q283.71-24.26 283.71-26.02L283.71-26.02L283.71-26.02Q283.71-27.78 283.20-28.93L283.20-28.93L283.20-28.93Q282.69-30.08 281.25-30.08L281.25-30.08L281.25-30.08Q279.81-30.08 278.85-29.18L278.85-29.18L278.85-29.18Q277.89-28.29 277.12-26.56ZM345.41 1.28L345.41 1.28L345.41 1.28Q337.66 1.28 337.66-4.74L337.66-4.74L337.66-4.74Q337.66-7.36 338.78-12.45L338.78-12.45L338.78-12.45Q339.90-17.54 340.29-19.58L340.29-19.58L340.29-19.58Q341.18-24.26 341.18-25.73L341.18-25.73L341.18-25.73Q341.18-28.99 338.75-28.99L338.75-28.99L338.75-28.99Q337.15-28.99 335.62-26.78L335.62-26.78L335.62-26.78Q334.08-24.58 333.38-20.16L333.38-20.16L329.41 0L316.93 1.28L320.38-16.13L320.38-16.13Q320.96-19.01 321.47-22.27L321.47-22.27L321.47-22.27Q321.98-25.54 321.98-26.05L321.98-26.05L321.98-26.05Q321.98-28.99 319.81-28.99L319.81-28.99L319.81-28.99Q318.34-28.99 316.74-26.82L316.74-26.82L316.74-26.82Q315.14-24.64 314.24-20.16L314.24-20.16L310.34 0L297.73 1.28L304.45-32.64L314.88-33.92L313.79-27.46L313.79-27.46Q315.46-30.91 318.53-32.42L318.53-32.42L318.53-32.42Q321.60-33.92 326.40-33.92L326.40-33.92L326.40-33.92Q329.15-33.92 330.94-32.58L330.94-32.58L330.94-32.58Q332.74-31.23 333.31-29.06L333.31-29.06L333.31-29.06Q334.40-31.30 337.18-32.61L337.18-32.61L337.18-32.61Q339.97-33.92 343.39-33.92L343.39-33.92L343.39-33.92Q346.82-33.92 348.51-33.18L348.51-33.18L348.51-33.18Q350.21-32.45 351.23-31.23L351.23-31.23L351.23-31.23Q352.96-28.99 352.96-24.90L352.96-24.90L352.96-24.90Q352.96-20.86 351.23-12.48L351.23-12.48L351.23-12.48Q350.34-8.38 350.34-6.88L350.34-6.88L350.34-6.88Q350.34-5.38 351.20-4.48L351.20-4.48L351.20-4.48Q352.06-3.58 353.34-3.46L353.34-3.46L353.34-3.46Q352.70-1.28 350.50 0L350.50 0L350.50 0Q348.29 1.28 345.41 1.28Z" fill="url(#editing-shadow-gradient2)"></path></g></g></g><style>text {
  font-size: 64px;
  font-family: Arial Black;
  dominant-baseline: central;
  text-anchor: middle;
}</style></svg>